<?xml version="1.0" encoding="UTF-8" standalone="no"?>
<!DOCTYPE svg PUBLIC "-//W3C//DTD SVG 1.1//EN" "http://www.w3.org/Graphics/SVG/1.1/DTD/svg11.dtd">
<svg width="100%" height="100%" viewBox="0 0 448 512" version="1.1" xmlns="http://www.w3.org/2000/svg" xmlns:xlink="http://www.w3.org/1999/xlink" xml:space="preserve" xmlns:serif="http://www.serif.com/" style="fill-rule:evenodd;clip-rule:evenodd;stroke-linejoin:round;stroke-miterlimit:2;">
    <path d="M448,336L448,48C448,21.49 426.5,0 400,0L96,0C42.98,0 0,42.98 0,96L0,416C0,469.02 42.98,512 96,512L416,512C433.67,512 448,497.67 448,480.9C448,469.18 441.393,459.38 432,453.8L432,372.44C441.8,362.8 448,350.2 448,336ZM384,448L96,448C78.33,448 64,433.67 64,416C64,398.33 78.33,384 96,384L384,384L384,448ZM390.609,272.713C392.036,277.332 389.434,282.232 384.8,283.162L376.402,285.738C371.763,287.16 366.845,284.568 365.418,279.945L352.261,237.921L308.612,220.525L337.863,254.524C340.642,257.754 341.677,262.122 340.642,266.253L325.199,326.483C324.022,331.171 319.252,334.021 314.547,332.85L306.024,330.732C301.315,329.56 298.453,324.807 299.629,320.119L313.415,266.497L292.348,242.006C292.432,243.212 292.711,244.362 292.711,245.588C292.711,274.593 269.106,298.105 239.992,298.105C210.878,298.105 187.271,274.573 187.271,245.58C187.271,244.353 187.551,243.206 187.634,242L166.567,266.486L180.352,320.108C181.529,324.798 178.665,329.55 173.957,330.721L165.434,332.84C160.728,334.011 155.959,331.159 154.783,326.472L139.34,266.242C138.304,262.115 139.34,257.746 142.119,254.513L171.37,220.514L127.721,237.91L114.586,280.438C113.159,285.059 108.24,287.653 103.601,286.231L95.204,283.655C90.566,282.233 87.967,277.336 89.389,273.206L104.378,224.688C105.55,220.892 108.384,217.828 112.086,216.351L169.383,193.063L112.106,170.235C108.403,168.774 105.575,165.218 104.399,161.936L89.415,113.413C87.988,108.794 90.59,103.894 95.225,102.964L103.622,100.388C108.261,98.966 113.179,101.558 114.606,106.181L127.741,148.709L171.39,166.105L142.139,131.575C139.35,128.347 138.31,123.971 139.35,119.868L154.793,59.638C155.969,54.949 160.739,52.099 165.444,53.27L173.967,55.389C178.682,56.571 181.527,61.323 179.886,66.016L166.593,119.649L196.079,153.894L196.163,140.524C195.203,120.524 207.676,103.221 225.455,97.018C228.267,96.037 231.199,98.229 231.199,101.198L231.199,114.288L248.77,114.288L248.77,101.208C248.77,98.23 251.721,96.042 254.542,97.028C271.681,103.013 283.935,119.211 283.935,138.303C283.935,139.065 283.837,139.774 283.798,140.527L283.935,153.894L313.426,119.616L299.64,65.994C298.464,61.304 301.328,56.552 306.035,55.382L314.558,53.263C319.265,52.092 324.033,54.943 325.209,59.631L340.653,119.861C341.689,123.987 340.653,128.356 337.874,131.589L308.623,165.589L352.272,148.192L365.407,105.665C366.833,101.044 371.752,98.449 376.391,99.872L384.789,102.448C389.426,103.87 392.026,108.766 390.604,112.896L375.615,161.414C374.442,165.21 371.609,168.274 367.907,169.751L310.631,193.063L367.907,215.891C371.601,217.363 374.427,220.423 375.604,224.212L390.609,272.713ZM235.909,246L227.477,231.951C226.853,230.922 226.843,229.642 227.436,228.592C228.018,227.551 229.131,227 230.328,227L250.3,227C251.496,227 252.609,227.551 253.191,228.592C253.784,229.642 253.774,230.922 253.15,231.951L244.719,246L253.15,260.049C253.774,261.078 253.784,262.358 253.191,263.408C252.609,264.449 251.496,265 250.3,265L230.328,265C229.131,265 228.018,264.449 227.436,263.408C226.843,262.358 226.853,261.078 227.477,260.049L235.909,246Z" style="fill:rgb(61,184,104);fill-rule:nonzero;"/>
</svg>
