<?xml version="1.0" encoding="UTF-8" standalone="no"?><!DOCTYPE svg PUBLIC "-//W3C//DTD SVG 1.1//EN" "http://www.w3.org/Graphics/SVG/1.1/DTD/svg11.dtd"><svg width="24px" height="24px" viewBox="0 0 448 512" version="1.1" xmlns="http://www.w3.org/2000/svg" xmlns:xlink="http://www.w3.org/1999/xlink" xml:space="preserve" xmlns:serif="http://www.serif.com/" style="fill-rule:evenodd;clip-rule:evenodd;stroke-linejoin:round;stroke-miterlimit:2;"><path d="M448,336l0,-288c0,-26.51 -21.5,-48 -48,-48l-304,0c-53.02,0 -96,42.98 -96,96l0,320c0,53.02 42.98,96 96,96l320,0c17.67,0 32,-14.33 32,-31.1c0,-11.72 -6.607,-21.52 -16,-27.1l0,-81.36c9.8,-9.64 16,-22.24 16,-36.44Zm-64,112l-288,0c-17.67,0 -32,-14.33 -32,-32c0,-17.67 14.33,-32 32,-32l288,0l0,64Zm6.609,-175.287c1.427,4.619 -1.175,9.519 -5.809,10.449l-8.398,2.576c-4.639,1.422 -9.557,-1.17 -10.984,-5.793l-13.157,-42.024l-43.649,-17.396l29.251,33.999c2.779,3.23 3.814,7.598 2.779,11.729l-15.443,60.23c-1.177,4.688 -5.947,7.538 -10.652,6.367l-8.523,-2.118c-4.709,-1.172 -7.571,-5.925 -6.395,-10.613l13.786,-53.622l-21.067,-24.491c0.084,1.206 0.363,2.356 0.363,3.582c-0,29.005 -23.605,52.517 -52.719,52.517c-29.114,0 -52.721,-23.532 -52.721,-52.525c0,-1.227 0.28,-2.374 0.363,-3.58l-21.067,24.486l13.785,53.622c1.177,4.69 -1.687,9.442 -6.395,10.613l-8.523,2.119c-4.706,1.171 -9.475,-1.681 -10.651,-6.368l-15.443,-60.23c-1.036,-4.127 0,-8.496 2.779,-11.729l29.251,-33.999l-43.649,17.396l-13.135,42.528c-1.427,4.621 -6.346,7.215 -10.985,5.793l-8.397,-2.576c-4.638,-1.422 -7.237,-6.319 -5.815,-10.449l14.989,-48.518c1.172,-3.796 4.006,-6.86 7.708,-8.337l57.297,-23.288l-57.277,-22.828c-3.703,-1.461 -6.531,-5.017 -7.707,-8.299l-14.984,-48.523c-1.427,-4.619 1.175,-9.519 5.81,-10.449l8.397,-2.576c4.639,-1.422 9.557,1.17 10.984,5.793l13.135,42.528l43.649,17.396l-29.251,-34.53c-2.789,-3.228 -3.829,-7.604 -2.789,-11.707l15.443,-60.23c1.176,-4.689 5.946,-7.539 10.651,-6.368l8.523,2.119c4.715,1.182 7.56,5.934 5.919,10.627l-13.293,53.633l29.486,34.245l0.084,-13.37c-0.96,-20 11.513,-37.303 29.292,-43.506c2.812,-0.981 5.744,1.211 5.744,4.18l0,13.09l17.571,-0l0,-13.08c0,-2.978 2.951,-5.166 5.772,-4.18c17.139,5.985 29.393,22.183 29.393,41.275c-0,0.762 -0.098,1.471 -0.137,2.224l0.137,13.367l29.491,-34.278l-13.786,-53.622c-1.176,-4.69 1.688,-9.442 6.395,-10.612l8.523,-2.119c4.707,-1.171 9.475,1.68 10.651,6.368l15.444,60.23c1.036,4.126 -0,8.495 -2.779,11.728l-29.251,34l43.649,-17.397l13.135,-42.527c1.426,-4.621 6.345,-7.216 10.984,-5.793l8.398,2.576c4.637,1.422 7.237,6.318 5.815,10.448l-14.989,48.518c-1.173,3.796 -4.006,6.86 -7.708,8.337l-57.276,23.312l57.276,22.828c3.694,1.472 6.52,4.532 7.697,8.321l15.005,48.501Zm-154.7,-26.713l-8.432,-14.049c-0.624,-1.029 -0.634,-2.309 -0.041,-3.359c0.582,-1.041 1.695,-1.592 2.892,-1.592l19.972,0c1.196,0 2.309,0.551 2.891,1.592c0.593,1.05 0.583,2.33 -0.041,3.359l-8.431,14.049l8.431,14.049c0.624,1.029 0.634,2.309 0.041,3.359c-0.582,1.041 -1.695,1.592 -2.891,1.592l-19.972,0c-1.197,0 -2.31,-0.551 -2.892,-1.592c-0.593,-1.05 -0.583,-2.33 0.041,-3.359l8.432,-14.049Z" style="fill:#3db868;fill-rule:nonzero;"/></svg>